<?xml version="1.0" encoding="utf-8"?>
<!-- Generator: Adobe Illustrator 24.3.0, SVG Export Plug-In . SVG Version: 6.00 Build 0)  -->
<svg version="1.1" id="_x2014_腩開x5F_1" xmlns="http://www.w3.org/2000/svg" xmlns:xlink="http://www.w3.org/1999/xlink" x="0px"
	 y="0px" viewBox="0 0 1600 1200" style="enable-background:new 0 0 1600 1200;" xml:space="preserve">
<style type="text/css">
	.st0{fill:#E8EBFF;}
	.st1{opacity:0.5;}
	.st2{fill:url(#SVGID_1_);}
	.st3{fill:url(#SVGID_2_);}
	.st4{fill:url(#SVGID_3_);}
	.st5{opacity:0.3;}
	.st6{fill:url(#SVGID_4_);}
	.st7{fill:url(#SVGID_5_);}
	.st8{fill:url(#SVGID_6_);}
	.st9{fill:url(#SVGID_7_);}
	.st10{filter:url(#Adobe_OpacityMaskFilter);}
	.st11{fill:url(#SVGID_9_);}
	.st12{mask:url(#SVGID_8_);}
	.st13{fill:url(#SVGID_10_);}
	.st14{fill:url(#SVGID_11_);}
	.st15{fill:url(#SVGID_12_);}
	.st16{fill:url(#SVGID_13_);}
	.st17{fill:#00A9FF;}
	.st18{opacity:0;fill:#FFFFFF;}
	.st19{opacity:0.0476;fill:#FDFDFD;}
	.st20{opacity:0.0952;fill:#FBFBFC;}
	.st21{opacity:0.1429;fill:#F9F9FA;}
	.st22{opacity:0.1905;fill:#F7F7F9;}
	.st23{opacity:0.2381;fill:#F5F5F7;}
	.st24{opacity:0.2857;fill:#F3F3F6;}
	.st25{opacity:0.3333;fill:#F1F1F4;}
	.st26{opacity:0.381;fill:#EFEFF2;}
	.st27{opacity:0.4286;fill:#EDEDF1;}
	.st28{opacity:0.4762;fill:#EBEBEF;}
	.st29{opacity:0.5238;fill:#E9E9EE;}
	.st30{opacity:0.5714;fill:#E7E7EC;}
	.st31{opacity:0.619;fill:#E6E5EA;}
	.st32{opacity:0.6667;fill:#E4E3E9;}
	.st33{opacity:0.7143;fill:#E2E1E7;}
	.st34{opacity:0.7619;fill:#E0DFE6;}
	.st35{opacity:0.8095;fill:#DEDDE4;}
	.st36{opacity:0.8571;fill:#DCDBE3;}
	.st37{opacity:0.9048;fill:#DAD9E1;}
	.st38{opacity:0.9524;fill:#D8D7DF;}
	.st39{fill:#D6D5DE;}
	.st40{fill:#FFFFFF;}
	.st41{fill:url(#SVGID_14_);}
	.st42{fill:url(#SVGID_15_);}
	.st43{fill:url(#SVGID_16_);}
	.st44{fill:url(#SVGID_17_);}
	.st45{fill:#C7C5DA;}
	.st46{fill:url(#SVGID_18_);}
	.st47{fill:url(#SVGID_19_);}
	.st48{fill:url(#SVGID_20_);}
	.st49{fill:url(#SVGID_21_);}
	.st50{fill:url(#SVGID_22_);}
	.st51{fill:url(#SVGID_23_);}
	.st52{fill:url(#SVGID_24_);}
	.st53{fill:url(#SVGID_25_);}
	.st54{fill:url(#SVGID_26_);}
	.st55{fill:url(#SVGID_27_);}
	.st56{fill:url(#SVGID_28_);}
	.st57{fill:#1A5DFF;}
	.st58{fill:#F6E5FF;}
	.st59{fill:#EBB0B0;}
	.st60{fill:url(#SVGID_29_);}
	.st61{fill:url(#SVGID_30_);}
	.st62{fill:url(#SVGID_31_);}
	.st63{fill:url(#SVGID_32_);}
	.st64{fill:url(#SVGID_33_);}
	.st65{fill:url(#SVGID_34_);}
	.st66{fill:url(#SVGID_35_);}
	.st67{fill:#FF3456;}
	.st68{fill:url(#SVGID_36_);}
	.st69{fill:url(#SVGID_37_);}
	.st70{fill:url(#SVGID_38_);}
	.st71{fill:url(#SVGID_39_);}
	.st72{fill:url(#SVGID_40_);}
	.st73{fill:url(#SVGID_41_);}
	.st74{fill:url(#SVGID_42_);}
	.st75{fill:url(#SVGID_43_);}
	.st76{fill:url(#SVGID_44_);}
	.st77{fill:url(#SVGID_45_);}
	.st78{fill:url(#SVGID_46_);}
	.st79{fill:url(#SVGID_47_);}
	.st80{fill:url(#SVGID_48_);}
	.st81{fill:url(#SVGID_49_);}
	.st82{fill:url(#SVGID_50_);}
	.st83{fill:url(#SVGID_51_);}
	.st84{fill:url(#SVGID_52_);}
	.st85{fill:url(#SVGID_53_);}
	.st86{fill:#FF7A47;}
	.st87{opacity:0.6;fill:#EFEFF3;}
	.st88{fill:url(#SVGID_54_);}
	.st89{fill:url(#SVGID_55_);}
	.st90{fill:url(#SVGID_56_);}
	.st91{fill:url(#SVGID_57_);}
	.st92{fill:url(#SVGID_58_);}
	.st93{fill:url(#SVGID_59_);}
	.st94{fill:#5E4EF4;}
	.st95{fill:#EC89F6;}
	.st96{fill:url(#SVGID_60_);}
	.st97{fill:url(#SVGID_61_);}
	.st98{fill:url(#SVGID_62_);}
	.st99{fill:url(#SVGID_63_);}
	.st100{fill:url(#SVGID_64_);}
	.st101{fill:url(#SVGID_65_);}
	.st102{fill:url(#SVGID_66_);}
	.st103{fill:url(#SVGID_67_);}
	.st104{fill:url(#SVGID_68_);}
	.st105{fill:url(#SVGID_69_);}
</style>
<g>
	<rect class="st0" width="1600" height="800"/>
</g>
<g class="st1">
	<linearGradient id="SVGID_1_" gradientUnits="userSpaceOnUse" x1="126.4665" y1="-152.5222" x2="445.2116" y2="194.0741">
		<stop  offset="0" style="stop-color:#BB1AFF"/>
		<stop  offset="1" style="stop-color:#EC89F6"/>
	</linearGradient>
	<path class="st2" d="M331.37,25.19l-30.82,17.79l-7.93,41.16c4.07,2.39,8.29,4.8,12.69,7.25c22.84,12.68,44.38,31.65,63.06,54.28
		l31.82-55.92C379.18,64.78,355.95,42.77,331.37,25.19z"/>
	<linearGradient id="SVGID_2_" gradientUnits="userSpaceOnUse" x1="-313.3159" y1="613.5873" x2="441.0709" y2="75.0712">
		<stop  offset="0" style="stop-color:#1A5DFF"/>
		<stop  offset="1" style="stop-color:#BB1AFF"/>
	</linearGradient>
	<polygon class="st3" points="400.19,89.75 369.38,107.55 337.56,163.47 368.37,145.67 	"/>
	<linearGradient id="SVGID_3_" gradientUnits="userSpaceOnUse" x1="417.7133" y1="88.5163" x2="92.8306" y2="136.9562">
		<stop  offset="0" style="stop-color:#BB1AFF"/>
		<stop  offset="1" style="stop-color:#EC89F6"/>
	</linearGradient>
	<path class="st4" d="M300.55,42.99L300.55,42.99l-14.16,73.45c18.42,12.21,35.76,28.37,51.17,47.03l31.82-55.92
		C348.37,82.57,325.14,60.56,300.55,42.99z"/>
</g>
<g class="st5">
	<linearGradient id="SVGID_4_" gradientUnits="userSpaceOnUse" x1="238.0251" y1="-36.897" x2="5730.1582" y2="1230.5166">
		<stop  offset="0" style="stop-color:#1AE0FF"/>
		<stop  offset="1" style="stop-color:#BB1AFF"/>
	</linearGradient>
	<path class="st6" d="M1358.06,84.85c-128.62-71.43-244.27-76.5-328.11-27.03l0-0.03l-13.77,8.04l-51.46,49.49
		c-20.47,25.97-37.07,57.24-49.13,93.44l243.24-61.46c0,0,70.66,64.61,202.51,137.84c54.71,30.38,106.31,75.82,151.07,130.03
		l76.23-133.96C1519.91,199.53,1441.29,131.07,1358.06,84.85z"/>
	<linearGradient id="SVGID_5_" gradientUnits="userSpaceOnUse" x1="742.1728" y1="-50.2569" x2="2132.0913" y2="1345.223">
		<stop  offset="0" style="stop-color:#04007E"/>
		<stop  offset="1" style="stop-color:#BB1AFF"/>
	</linearGradient>
	<path class="st7" d="M915.58,208.75l119.17,111.78l25.64,53.97l18.93-10.85c23.87-71.22,78.15-96.08,78.15-96.08
		S976.05,27.26,915.58,208.75z"/>
	<linearGradient id="SVGID_6_" gradientUnits="userSpaceOnUse" x1="2085.7034" y1="111.536" x2="-794.2073" y2="553.5309">
		<stop  offset="0" style="stop-color:#1A94FF"/>
		<stop  offset="1" style="stop-color:#BB1AFF"/>
	</linearGradient>
	<path class="st8" d="M895.85,220.18l164.55,154.32c39.02-114.56,149.18-151.26,281.2-77.95c54.71,30.38,106.31,75.82,151.07,130.03
		l76.23-133.96c-68.71-81.67-147.33-150.13-230.57-196.35C1130.41-19.19,956.32,38.69,895.85,220.18z"/>
	<linearGradient id="SVGID_7_" gradientUnits="userSpaceOnUse" x1="1711.5374" y1="267.5062" x2="1472.6758" y2="388.2492">
		<stop  offset="0" style="stop-color:#00F5AD"/>
		<stop  offset="1" style="stop-color:#00A9FF"/>
	</linearGradient>
	<polygon class="st9" points="1588.62,281.2 1568.89,292.63 1492.66,426.59 1512.4,415.16 	"/>
</g>
<defs>
	<filter id="Adobe_OpacityMaskFilter" filterUnits="userSpaceOnUse" x="0" y="502.66" width="686.58" height="697.34">
		<feColorMatrix  type="matrix" values="1 0 0 0 0  0 1 0 0 0  0 0 1 0 0  0 0 0 1 0"/>
	</filter>
</defs>
<mask maskUnits="userSpaceOnUse" x="0" y="502.66" width="686.58" height="697.34" id="SVGID_8_">
	<g class="st10">
		<linearGradient id="SVGID_9_" gradientUnits="userSpaceOnUse" x1="409.2973" y1="309.0003" x2="409.2973" y2="1757.2524">
			<stop  offset="0" style="stop-color:#000000"/>
			<stop  offset="0.0861" style="stop-color:#0B0B0B"/>
			<stop  offset="0.2371" style="stop-color:#282828"/>
			<stop  offset="0.435" style="stop-color:#575757"/>
			<stop  offset="0.6724" style="stop-color:#999999"/>
			<stop  offset="0.9404" style="stop-color:#ECECEC"/>
			<stop  offset="1" style="stop-color:#FFFFFF"/>
		</linearGradient>
		<rect y="448.88" class="st11" width="818.59" height="751.12"/>
	</g>
</mask>
<g class="st12">
	<linearGradient id="SVGID_10_" gradientUnits="userSpaceOnUse" x1="-176.8609" y1="476.3102" x2="807.5519" y2="1464.662">
		<stop  offset="0" style="stop-color:#04007E"/>
		<stop  offset="1" style="stop-color:#BB1AFF"/>
	</linearGradient>
	<path class="st13" d="M421.89,1069.64C300.7,1002.34,200.6,833.26,198.29,692c-0.48-29.61,3.38-55.64,10.89-77.68L90.14,502.66
		L0,554.72v118.96l75.82,212.5c25.32,196.67,159.33,229.21,320.72,313.82h290.03l-91.46-134.56
		C556.06,1104.75,493.28,1109.29,421.89,1069.64z"/>
	<linearGradient id="SVGID_11_" gradientUnits="userSpaceOnUse" x1="584.5129" y1="1225.1343" x2="728.7994" y2="1166.7638">
		<stop  offset="0" style="stop-color:#04007E"/>
		<stop  offset="1" style="stop-color:#BB1AFF"/>
	</linearGradient>
	<polygon class="st14" points="646.24,1200 686.58,1200 669.35,1174.66 	"/>
	<linearGradient id="SVGID_12_" gradientUnits="userSpaceOnUse" x1="-313.7009" y1="718.8322" x2="666.2632" y2="1297.3661">
		<stop  offset="0" style="stop-color:#1A5DFF"/>
		<stop  offset="1" style="stop-color:#BB1AFF"/>
	</linearGradient>
	<path class="st15" d="M296.55,1142.02c-121.18-67.3-221.29-236.37-223.6-377.64c-0.48-29.61,3.38-55.64,10.89-77.68L0,608.06V1200
		h512.05l-42.26-62.17C430.72,1177.13,367.95,1181.67,296.55,1142.02z"/>
	<linearGradient id="SVGID_13_" gradientUnits="userSpaceOnUse" x1="1847.8462" y1="1339.9862" x2="411.2286" y2="1109.9236">
		<stop  offset="0" style="stop-color:#BB1AFF"/>
		<stop  offset="1" style="stop-color:#EC89F6"/>
	</linearGradient>
	<polygon class="st16" points="469.79,1137.83 512.05,1200 686.58,1200 595.12,1065.44 	"/>
	<polygon class="st17" points="208.94,615.04 90.14,502.66 0,554.72 0,608.06 83.85,686.7 	"/>
</g>
<g>
	<path class="st18" d="M1468.4,1155.67H140.2c-35.21,0-63.75-28.54-63.75-63.75V271.13c0-35.21,28.54-63.75,63.75-63.75h1328.2
		c35.21,0,63.75,28.54,63.75,63.75v820.79C1532.15,1127.13,1503.61,1155.67,1468.4,1155.67z"/>
	<path class="st19" d="M1467.42,1151.72H141.1c-34.29,0-62.08-27.79-62.08-62.08V270.91c0-34.29,27.79-62.08,62.08-62.08h1326.32
		c34.29,0,62.08,27.79,62.08,62.08v818.72C1529.5,1123.92,1501.71,1151.72,1467.42,1151.72z"/>
	<path class="st20" d="M1466.44,1147.77H142c-33.36,0-60.41-27.04-60.41-60.41V270.7c0-33.36,27.04-60.41,60.41-60.41h1324.44
		c33.36,0,60.41,27.04,60.41,60.41v816.66C1526.85,1120.72,1499.8,1147.77,1466.44,1147.77z"/>
	<path class="st21" d="M1465.46,1143.82H142.91c-32.44,0-58.73-26.3-58.73-58.73v-814.6c0-32.44,26.3-58.73,58.73-58.73h1322.55
		c32.44,0,58.73,26.3,58.73,58.73v814.6C1524.19,1117.52,1497.9,1143.82,1465.46,1143.82z"/>
	<path class="st22" d="M1464.48,1139.87H143.81c-31.51,0-57.06-25.55-57.06-57.06V270.27c0-31.51,25.55-57.06,57.06-57.06h1320.67
		c31.51,0,57.06,25.55,57.06,57.06v812.53C1521.54,1114.32,1495.99,1139.87,1464.48,1139.87z"/>
	<path class="st23" d="M1463.49,1135.92H144.71c-30.59,0-55.39-24.8-55.39-55.39V270.06c0-30.59,24.8-55.39,55.39-55.39h1318.78
		c30.59,0,55.39,24.8,55.39,55.39v810.47C1518.88,1111.12,1494.09,1135.92,1463.49,1135.92z"/>
	<path class="st24" d="M1462.51,1131.97H145.61c-29.67,0-53.72-24.05-53.72-53.72V269.84c0-29.67,24.05-53.72,53.72-53.72h1316.9
		c29.67,0,53.72,24.05,53.72,53.72v808.41C1516.23,1107.92,1492.18,1131.97,1462.51,1131.97z"/>
	<path class="st25" d="M1461.53,1128.02H146.51c-28.74,0-52.05-23.3-52.05-52.05V269.63c0-28.74,23.3-52.05,52.05-52.05h1315.02
		c28.74,0,52.05,23.3,52.05,52.05v806.34C1513.58,1104.72,1490.28,1128.02,1461.53,1128.02z"/>
	<path class="st26" d="M1460.55,1124.07H147.42c-27.82,0-50.37-22.55-50.37-50.37V269.42c0-27.82,22.55-50.37,50.37-50.37h1313.13
		c27.82,0,50.37,22.55,50.37,50.37v804.28C1510.92,1101.52,1488.37,1124.07,1460.55,1124.07z"/>
	<path class="st27" d="M1459.57,1120.12H148.32c-26.9,0-48.7-21.8-48.7-48.7V269.2c0-26.9,21.8-48.7,48.7-48.7h1311.25
		c26.9,0,48.7,21.8,48.7,48.7v802.22C1508.27,1098.32,1486.47,1120.12,1459.57,1120.12z"/>
	<path class="st28" d="M1458.59,1116.17H149.22c-25.97,0-47.03-21.06-47.03-47.03V268.99c0-25.97,21.06-47.03,47.03-47.03h1309.37
		c25.97,0,47.03,21.06,47.03,47.03v800.15C1505.62,1095.11,1484.56,1116.17,1458.59,1116.17z"/>
	<path class="st29" d="M1457.61,1112.22H150.12c-25.05,0-45.36-20.31-45.36-45.36V268.77c0-25.05,20.31-45.36,45.36-45.36h1307.48
		c25.05,0,45.36,20.31,45.36,45.36v798.09C1502.96,1091.91,1482.66,1112.22,1457.61,1112.22z"/>
	<path class="st30" d="M1456.62,1108.27H151.03c-24.13,0-43.68-19.56-43.68-43.68V268.56c0-24.13,19.56-43.68,43.68-43.68h1305.6
		c24.13,0,43.68,19.56,43.68,43.68v796.03C1500.31,1088.71,1480.75,1108.27,1456.62,1108.27z"/>
	<path class="st31" d="M1455.64,1104.32H151.93c-23.2,0-42.01-18.81-42.01-42.01V268.34c0-23.2,18.81-42.01,42.01-42.01h1303.71
		c23.2,0,42.01,18.81,42.01,42.01v793.96C1497.65,1085.51,1478.85,1104.32,1455.64,1104.32z"/>
	<path class="st32" d="M1454.66,1100.37H152.83c-22.28,0-40.34-18.06-40.34-40.34v-791.9c0-22.28,18.06-40.34,40.34-40.34h1301.83
		c22.28,0,40.34,18.06,40.34,40.34v791.9C1495,1082.31,1476.94,1100.37,1454.66,1100.37z"/>
	<path class="st33" d="M1453.68,1096.42H153.73c-21.36,0-38.67-17.31-38.67-38.67V267.92c0-21.36,17.31-38.67,38.67-38.67h1299.95
		c21.36,0,38.67,17.31,38.67,38.67v789.84C1492.35,1079.11,1475.04,1096.42,1453.68,1096.42z"/>
	<path class="st34" d="M1452.7,1092.47H154.64c-20.43,0-37-16.56-37-37V267.7c0-20.43,16.56-37,37-37H1452.7c20.43,0,37,16.56,37,37
		v787.77C1489.69,1075.91,1473.13,1092.47,1452.7,1092.47z"/>
	<path class="st35" d="M1451.72,1088.52H155.54c-19.51,0-35.32-15.81-35.32-35.32V267.49c0-19.51,15.81-35.32,35.32-35.32h1296.18
		c19.51,0,35.32,15.81,35.32,35.32v785.71C1487.04,1072.71,1471.23,1088.52,1451.72,1088.52z"/>
	<path class="st36" d="M1450.74,1084.57H156.44c-18.58,0-33.65-15.07-33.65-33.65V267.27c0-18.58,15.07-33.65,33.65-33.65h1294.29
		c18.58,0,33.65,15.07,33.65,33.65v783.65C1484.39,1069.51,1469.32,1084.57,1450.74,1084.57z"/>
	<path class="st37" d="M1449.75,1080.62H157.34c-17.66,0-31.98-14.32-31.98-31.98V267.06c0-17.66,14.32-31.98,31.98-31.98h1292.41
		c17.66,0,31.98,14.32,31.98,31.98v781.58C1481.73,1066.31,1467.42,1080.62,1449.75,1080.62z"/>
	<path class="st38" d="M1448.77,1076.67H158.25c-16.74,0-30.31-13.57-30.31-30.31V266.85c0-16.74,13.57-30.31,30.31-30.31h1290.53
		c16.74,0,30.31,13.57,30.31,30.31v779.52C1479.08,1063.1,1465.51,1076.67,1448.77,1076.67z"/>
	<path class="st39" d="M1447.79,1072.72H159.15c-15.81,0-28.63-12.82-28.63-28.63V266.63c0-15.81,12.82-28.63,28.63-28.63h1288.64
		c15.81,0,28.63,12.82,28.63,28.63v777.46C1476.43,1059.9,1463.61,1072.72,1447.79,1072.72z"/>
</g>
<rect x="88.73" y="105.66" class="st40" width="1424.62" height="943.02"/>
<g>
	<linearGradient id="SVGID_14_" gradientUnits="userSpaceOnUse" x1="977.9249" y1="1151.3236" x2="1331.4399" y2="738.4945">
		<stop  offset="0" style="stop-color:#D6D5DE"/>
		<stop  offset="1" style="stop-color:#FFFFFF"/>
	</linearGradient>
	<path class="st41" d="M1513.35,659.3c-59.08-25.07-134.06-40.07-215.66-40.07c-190.59,0-345.09,81.8-345.09,182.72
		s154.5,182.72,345.09,182.72c81.6,0,156.58-15,215.66-40.07V659.3z M1297.52,897.67c-99.85,0-180.79-42.86-180.79-95.72
		c0-52.87,80.94-95.72,180.79-95.72c99.85,0,180.79,42.86,180.79,95.72C1478.31,854.82,1397.37,897.67,1297.52,897.67z"/>
	<linearGradient id="SVGID_15_" gradientUnits="userSpaceOnUse" x1="635.1405" y1="942.4769" x2="858.0774" y2="942.4769">
		<stop  offset="0" style="stop-color:#D6D5DE"/>
		<stop  offset="1" style="stop-color:#FFFFFF"/>
	</linearGradient>
	<path class="st42" d="M635.14,944.45c0,0,20.88,0.65,61.73,2.26c3.56,0.14-6.2,5.89-2.42,6.04c49.84,1.99,122.94,2.94,147.27,3.85
		c3.67,0.14,16.36-28.26,16.36-28.26l-200.72,3.72l-18.53,6.45L635.14,944.45z"/>
	<linearGradient id="SVGID_16_" gradientUnits="userSpaceOnUse" x1="1339.3997" y1="1017.1765" x2="1550.2087" y2="1017.1765">
		<stop  offset="0" style="stop-color:#D6D5DE"/>
		<stop  offset="1" style="stop-color:#FFFFFF"/>
	</linearGradient>
	<path class="st43" d="M1339.4,1023.02c0,0,162.62,4.64,209.94,6.41c3.67,0.14-5.43-24.51-5.43-24.51l-179.13,4.62l-21.69,7.55
		L1339.4,1023.02z"/>
	<linearGradient id="SVGID_17_" gradientUnits="userSpaceOnUse" x1="1216.7565" y1="985.8445" x2="1501.8768" y2="992.3563">
		<stop  offset="0" style="stop-color:#D6D5DE"/>
		<stop  offset="1" style="stop-color:#FFFFFF"/>
	</linearGradient>
	<path class="st44" d="M1324.35,995.56c31.62,0,131.82,4.66,173.27,6.21c3.67,0.14-2.44-19.08-2.44-19.08s-115.51,3.29-156.5,3.53
		C1318.96,986.34,1312.18,995.56,1324.35,995.56z"/>
	<g>
		<path class="st45" d="M1229.14,1008.92c-1.98,0-3.7-1.46-3.96-3.48l-46.08-349.06c-0.29-2.19,1.25-4.2,3.44-4.49
			c2.2-0.29,4.2,1.25,4.49,3.44l46.08,349.06c0.29,2.19-1.25,4.2-3.44,4.49C1229.5,1008.91,1229.32,1008.92,1229.14,1008.92z"/>
		<path class="st45" d="M1284.47,976.98c-1.98,0-3.7-1.46-3.96-3.48l-46.08-349.06c-0.29-2.19,1.25-4.2,3.44-4.49
			c2.19-0.29,4.2,1.25,4.49,3.44l46.08,349.06c0.29,2.19-1.25,4.2-3.44,4.49C1284.82,976.97,1284.64,976.98,1284.47,976.98z"/>
		<path class="st39" d="M1080.83,923.29c-0.2,0-0.4-0.01-0.6-0.04c-2.18-0.33-3.69-2.37-3.36-4.55l44.53-296.74
			c0.33-2.18,2.36-3.69,4.55-3.36c2.18,0.33,3.69,2.37,3.36,4.55l-44.53,296.74C1084.48,921.86,1082.78,923.29,1080.83,923.29z"/>
		<path class="st39" d="M1136.15,891.35c-0.2,0-0.4-0.01-0.6-0.04c-2.18-0.33-3.69-2.37-3.36-4.55l44.53-296.74
			c0.33-2.18,2.36-3.69,4.55-3.36c2.18,0.33,3.69,2.36,3.36,4.55l-44.53,296.74C1139.8,889.92,1138.1,891.35,1136.15,891.35z"/>
		<linearGradient id="SVGID_18_" gradientUnits="userSpaceOnUse" x1="1292.4695" y1="596.713" x2="101.6339" y2="862.2483">
			<stop  offset="0" style="stop-color:#EFEFF3"/>
			<stop  offset="1" style="stop-color:#C7C5DA"/>
		</linearGradient>
		<polygon class="st46" points="1249.46,617.53 1173.75,661.24 1112.16,625.69 1187.88,581.98 		"/>
		<linearGradient id="SVGID_19_" gradientUnits="userSpaceOnUse" x1="1166.3661" y1="623.132" x2="1081.6462" y2="713.9031">
			<stop  offset="0" style="stop-color:#EFEFF3"/>
			<stop  offset="1" style="stop-color:#C7C5DA"/>
		</linearGradient>
		<polygon class="st47" points="1173.75,661.24 1173.75,670.74 1112.16,635.18 1112.16,625.69 		"/>
		<linearGradient id="SVGID_20_" gradientUnits="userSpaceOnUse" x1="1074.9113" y1="546.8719" x2="1258.9706" y2="677.8371">
			<stop  offset="0" style="stop-color:#EFEFF3"/>
			<stop  offset="1" style="stop-color:#C7C5DA"/>
		</linearGradient>
		<polygon class="st48" points="1173.75,661.24 1173.75,670.74 1249.46,627.03 1249.46,617.53 		"/>
		<path class="st45" d="M1190.87,718.91c-1.38,0-2.73-0.72-3.47-2c-1.1-1.91-0.45-4.36,1.46-5.46l55.32-31.94
			c1.91-1.11,4.36-0.45,5.46,1.46c1.1,1.91,0.45,4.36-1.46,5.46l-55.32,31.94C1192.23,718.74,1191.54,718.91,1190.87,718.91z"/>
		<path class="st45" d="M1197.49,769.09c-1.38,0-2.73-0.72-3.47-2c-1.1-1.91-0.45-4.36,1.46-5.46l55.32-31.94
			c1.91-1.11,4.36-0.45,5.46,1.46c1.1,1.91,0.45,4.36-1.46,5.46l-55.32,31.94C1198.86,768.92,1198.17,769.09,1197.49,769.09z"/>
		<path class="st45" d="M1204.12,819.28c-1.38,0-2.73-0.72-3.47-2c-1.1-1.91-0.45-4.36,1.46-5.46l55.32-31.94
			c1.91-1.11,4.36-0.45,5.46,1.46c1.1,1.91,0.45,4.36-1.46,5.46l-55.32,31.94C1205.48,819.1,1204.79,819.28,1204.12,819.28z"/>
		<path class="st45" d="M1210.74,869.46c-1.38,0-2.73-0.72-3.47-2c-1.1-1.91-0.45-4.36,1.46-5.46l55.32-31.94
			c1.91-1.11,4.36-0.45,5.46,1.46c1.1,1.91,0.45,4.36-1.46,5.46l-55.32,31.94C1212.11,869.29,1211.42,869.46,1210.74,869.46z"/>
		<path class="st45" d="M1217.37,919.64c-1.38,0-2.73-0.72-3.47-2c-1.1-1.91-0.45-4.36,1.46-5.46l55.32-31.94
			c1.91-1.11,4.36-0.45,5.46,1.46c1.1,1.91,0.45,4.36-1.46,5.46l-55.32,31.94C1218.73,919.47,1218.04,919.64,1217.37,919.64z"/>
		<path class="st45" d="M1223.99,969.83c-1.38,0-2.73-0.72-3.47-2c-1.1-1.91-0.45-4.36,1.46-5.46l55.32-31.94
			c1.91-1.11,4.36-0.45,5.46,1.46c1.1,1.91,0.45,4.36-1.46,5.46l-55.32,31.94C1225.36,969.65,1224.67,969.83,1223.99,969.83z"/>
	</g>
	<g>
		<linearGradient id="SVGID_21_" gradientUnits="userSpaceOnUse" x1="705.3354" y1="360.4074" x2="1316.199" y2="973.7152">
			<stop  offset="0" style="stop-color:#04007E"/>
			<stop  offset="1" style="stop-color:#BB1AFF"/>
		</linearGradient>
		<path class="st49" d="M1239.06,811.54l-59.73-87.88c-23.66,23.81-61.69,26.56-104.94,2.54
			c-73.41-40.77-134.05-143.19-135.45-228.77c-0.29-17.94,2.05-33.7,6.6-47.06l-72.11-67.64l-75.93,43.85l67.25,188.48
			c16.21,125.9,105.94,140.77,211.08,199.16c42.06,23.36,80.96,30.57,113.3,23.78l-2.44,7.37l30.53-17.67
			c1.42-0.78,2.82-1.59,4.2-2.43l0.1-0.06l0,0C1227.79,821.35,1233.66,816.79,1239.06,811.54z"/>
		<linearGradient id="SVGID_22_" gradientUnits="userSpaceOnUse" x1="953.8654" y1="923.078" x2="1378.5145" y2="751.2879">
			<stop  offset="0" style="stop-color:#04007E"/>
			<stop  offset="1" style="stop-color:#BB1AFF"/>
		</linearGradient>
		<path class="st50" d="M1224.3,789.82L1224.3,789.82l-45.44,49.83c3.49-0.4-19.07,16.45-15.72,15.75l-19.14,14.63l73.22-42.32
			c1.42-0.78,2.82-1.59,4.2-2.43l0.1-0.06l0,0c6.29-3.86,12.15-8.42,17.56-13.67L1224.3,789.82z"/>

			<linearGradient id="SVGID_23_" gradientUnits="userSpaceOnUse" x1="645.7711" y1="460.0606" x2="1207.8745" y2="791.9053" gradientTransform="matrix(1 0.5774 0 1 0 -478.2018)">
			<stop  offset="0" style="stop-color:#1A5DFF"/>
			<stop  offset="1" style="stop-color:#BB1AFF"/>
		</linearGradient>
		<path class="st51" d="M998.46,770.05c-73.41-40.77-134.05-143.19-135.45-228.77c-0.29-17.94,2.05-33.7,6.6-47.06l-72.11-67.64
			c-6.9,20.72-10.45,45.09-9.99,72.76c2.19,134.19,97.29,294.79,212.4,358.72c67.02,37.22,126.05,33.45,163.24-2.68l-59.73-87.88
			C1079.74,791.32,1041.71,794.07,998.46,770.05z"/>
		<linearGradient id="SVGID_24_" gradientUnits="userSpaceOnUse" x1="1967.1666" y1="916.9872" x2="1062.9857" y2="772.1899">
			<stop  offset="0" style="stop-color:#1A5DFF"/>
			<stop  offset="1" style="stop-color:#BB1AFF"/>
		</linearGradient>
		<polygon class="st52" points="1103.4,767.51 1179.33,723.66 1239.06,811.54 1163.14,855.39 		"/>
		<polygon class="st17" points="869.61,494.23 945.38,450.81 873.42,382.74 797.49,426.59 		"/>
	</g>
	<g>
		<linearGradient id="SVGID_25_" gradientUnits="userSpaceOnUse" x1="575.6342" y1="274.7747" x2="2989.406" y2="831.7982">
			<stop  offset="0" style="stop-color:#1AE0FF"/>
			<stop  offset="1" style="stop-color:#BB1AFF"/>
		</linearGradient>
		<path class="st53" d="M1067.88,328.28c-56.53-31.39-107.36-33.62-144.21-11.88l0-0.01l-6.05,3.53l-22.62,21.75
			c-9,11.41-16.29,25.16-21.59,41.07l106.9-27.01c0,0,31.05,28.4,89,60.58c24.05,13.35,46.72,33.32,66.39,57.15l33.5-58.87
			C1139.02,378.68,1104.47,348.6,1067.88,328.28z"/>
		<linearGradient id="SVGID_26_" gradientUnits="userSpaceOnUse" x1="797.2052" y1="268.903" x2="1408.069" y2="882.2111">
			<stop  offset="0" style="stop-color:#04007E"/>
			<stop  offset="1" style="stop-color:#BB1AFF"/>
		</linearGradient>
		<path class="st54" d="M873.42,382.74l52.37,49.13l11.27,23.72l8.32-4.77c10.49-31.3,34.35-42.23,34.35-42.23
			S899.99,302.97,873.42,382.74z"/>
		<linearGradient id="SVGID_27_" gradientUnits="userSpaceOnUse" x1="1387.6818" y1="340.0104" x2="121.9717" y2="534.2656">
			<stop  offset="0" style="stop-color:#1A94FF"/>
			<stop  offset="1" style="stop-color:#BB1AFF"/>
		</linearGradient>
		<path class="st55" d="M864.75,387.76l72.32,67.82c17.15-50.35,65.57-66.48,123.59-34.26c24.05,13.35,46.72,33.32,66.39,57.15
			l33.5-58.87c-30.2-35.89-64.75-65.98-101.33-86.3C967.83,282.56,891.32,307.99,864.75,387.76z"/>
		<linearGradient id="SVGID_28_" gradientUnits="userSpaceOnUse" x1="1223.2373" y1="408.5587" x2="1118.2584" y2="461.6248">
			<stop  offset="0" style="stop-color:#00F5AD"/>
			<stop  offset="1" style="stop-color:#00A9FF"/>
		</linearGradient>
		<polygon class="st56" points="1169.22,414.58 1160.54,419.6 1127.04,478.47 1135.72,473.45 		"/>
	</g>
	<g>
		<path class="st57" d="M1196.12,610.6c0.19,4.8-0.74,6.61-1.66,7.22c-0.92,0.61-0.95,0.78-1.1,1.58c-0.15,0.8-1.22,3.92-2.16,5.85
			c-3.35,6.91-9.43,7.11-8.14,1.43c1.29-5.68,2.08-5.82,2.35-9.81c0.27-3.99,0.73-7.98,4.35-9.7
			C1193.39,605.45,1196,607.66,1196.12,610.6z"/>
		<path class="st58" d="M1131.2,346.61c0,6.77-12.07,15.38-19.69,21.16c-6.47,4.91-47.92,19.98-47.92,19.98l-1.45-11.13l43.39-23.52
			c0,0,24.88-32.71,31.26-38.75C1146.62,305.05,1131.2,339.84,1131.2,346.61z"/>
		<path class="st57" d="M1157.72,606.62c-5.12,4.29-6.18,3.86-6.84,6.83c-0.66,2.97,7.53,1.19,11.39-0.25c0,0,3.16-1.2,4.77-3.3
			c1.61-2.11,3.22-1.05,6.25-2.11s3.41-3.98,2.08-8.61c-1.32-4.62-10.14-0.08-12.05,1.4
			C1161.44,602.08,1157.72,606.62,1157.72,606.62z"/>
		<path class="st59" d="M1165.44,599.58c-0.86,1.34-0.07,1.93,1.14,2.17c1.21,0.24,5.45-1.01,6.27-2.89
			c0.83-1.87,2.16-58.78,0-80.35c-2.16-21.58,0.78-86.67,1.57-102.63c0.79-15.96-27.18-19.57-27.76,8.35
			c-0.58,27.91,5.74,90.65,9.42,104.07c3.69,13.42,9.45,58.11,10.05,63.4C1166.4,594.03,1166.73,597.58,1165.44,599.58z"/>
		<path class="st59" d="M1187.93,609.26c-0.16,1.71-0.3,3.65,2.32,4.15c2.2,0.43,5.2-2.43,4.25-5.62c-1.45-4.85,4-57.79,1.8-79.37
			c-2.2-21.58-6.53-86.67-5.73-102.63s-27.68-19.57-28.28,8.35c-0.59,27.91,13.13,93.03,16.88,106.45
			c3.75,13.42,7.97,54.48,8.58,59.76C1188.03,602.69,1188.14,607.03,1187.93,609.26z"/>
		<linearGradient id="SVGID_29_" gradientUnits="userSpaceOnUse" x1="1215.2974" y1="470.988" x2="999.447" y2="454.5835">
			<stop  offset="0" style="stop-color:#FF3456"/>
			<stop  offset="1" style="stop-color:#FFDF73"/>
		</linearGradient>
		<path class="st60" d="M1131.33,402.54c-2.73,74.69,6.08,86.41,10.01,107.26c1.61,8.54,27.72,21.88,41.54,20.43
			c13.82-1.45,16.08-6.26,15.56-14.14c-1.25-18.83-1.62-26.64-4.11-108.54L1131.33,402.54z"/>
		<linearGradient id="SVGID_30_" gradientUnits="userSpaceOnUse" x1="1184.1652" y1="418.6572" x2="1091.4514" y2="292.0876">
			<stop  offset="0" style="stop-color:#1A5DFF"/>
			<stop  offset="1" style="stop-color:#BB1AFF"/>
		</linearGradient>
		<path class="st61" d="M1185.63,419.61c-6.71,11.97-11.12,28.47-34.81,30.4c-23.69,1.93-24.98-10.14-25.46-44.11
			s1.75-88.78,16.63-96.98c13.4-7.39,43.42,6.14,53.95,29.45c9.16,20.29,3.57,72.87,3.03,90.6S1185.63,419.61,1185.63,419.61z"/>
		<g>
			<linearGradient id="SVGID_31_" gradientUnits="userSpaceOnUse" x1="881.0342" y1="159.5074" x2="1216.6189" y2="524.4147">
				<stop  offset="0" style="stop-color:#BB1AFF"/>
				<stop  offset="1" style="stop-color:#EC89F6"/>
			</linearGradient>
			<path class="st62" d="M1096.76,346.61l-32.44,18.73l-8.35,43.33c4.29,2.51,8.73,5.06,13.36,7.63
				c24.05,13.35,46.72,33.32,66.39,57.15l33.5-58.87C1147.1,388.29,1122.64,365.12,1096.76,346.61z"/>
			<linearGradient id="SVGID_32_" gradientUnits="userSpaceOnUse" x1="418.0176" y1="966.0914" x2="1212.2594" y2="399.1248">
				<stop  offset="0" style="stop-color:#1A5DFF"/>
				<stop  offset="1" style="stop-color:#BB1AFF"/>
			</linearGradient>
			<polygon class="st63" points="1169.22,414.58 1136.78,433.32 1103.28,492.19 1135.72,473.45 			"/>
			<linearGradient id="SVGID_33_" gradientUnits="userSpaceOnUse" x1="1187.6678" y1="413.2803" x2="845.621" y2="464.2793">
				<stop  offset="0" style="stop-color:#BB1AFF"/>
				<stop  offset="1" style="stop-color:#EC89F6"/>
			</linearGradient>
			<path class="st64" d="M1064.32,365.34L1064.32,365.34l-14.91,77.33c19.39,12.86,37.65,29.87,53.87,49.51l33.5-58.87
				C1114.66,407.02,1090.2,383.85,1064.32,365.34z"/>
		</g>
		<linearGradient id="SVGID_34_" gradientUnits="userSpaceOnUse" x1="1104.265" y1="331.9371" x2="1154.5621" y2="324.1991">
			<stop  offset="0" style="stop-color:#FFFFFF"/>
			<stop  offset="0.0762" style="stop-color:#FDF9F9"/>
			<stop  offset="1" style="stop-color:#EBB0B0"/>
		</linearGradient>
		<path class="st65" d="M1182.97,324.84c-0.54-0.74-1.5-1.69-2.74-2.75l0,0l0,0c-0.21-0.18-0.44-0.37-0.67-0.56
			c-1.96-1.75-7.73-7.84-10.77-20.82c0,0-10.81-1.43-12.24,3.46c-0.73,2.5-3.43,4.33-5.9,5.53c-1.71,0.33-3.21,0.89-4.46,1.69
			c-0.03,0.01-0.05,0.01-0.05,0.01l0.02,0.01c-3.34,2.15-4.94,6-4.17,11.74c1.67,12.42,26.23,24.28,35.66,19.27
			C1187.08,337.42,1186.05,329.07,1182.97,324.84z"/>
		<path class="st58" d="M1177.65,342.43c9.43-5.01,8.4-13.36,5.32-17.58c-0.54-0.74-1.5-1.69-2.74-2.75l0,0l0,0
			c-0.21-0.18-0.44-0.37-0.67-0.56c-1.52-1.36-5.33-5.35-8.39-13.12h-0.01c0,0-3.04,7.11-7.69,8.06
			c-4.13,0.84-12.11-0.24-12.92-6.75c-1.67,0.33-3.13,0.88-4.36,1.67c-0.03,0.01-0.05,0.01-0.05,0.01l0.02,0.01
			c-3.34,2.15-4.94,6-4.17,11.74C1143.66,335.58,1168.22,347.44,1177.65,342.43z"/>
		<linearGradient id="SVGID_35_" gradientUnits="userSpaceOnUse" x1="1102.4404" y1="266.3402" x2="1174.9331" y2="306.2519">
			<stop  offset="0" style="stop-color:#FFFFFF"/>
			<stop  offset="0.0762" style="stop-color:#FDF9F9"/>
			<stop  offset="1" style="stop-color:#EBB0B0"/>
		</linearGradient>
		<path class="st66" d="M1142.46,289.43c-2.27,19.22,4.02,23.87,9.93,26.06c5.91,2.19,19.33-5.6,16.64-26.06
			C1166.33,268.97,1144.29,273.9,1142.46,289.43z"/>
		<path class="st57" d="M1142.03,294.66c-1.31-0.02-3.85-1.21-3.04-1.75s0.14-0.46,0.54-1.93c0.41-1.47-4.55-1.03-3.59-1.59
			c0.96-0.55-0.53-0.54-0.8-2.92c-0.27-2.38-0.95-3.92,0.41-3.73c1.36,0.18,1.97-2.58,2.17-3.19c0.2-0.61-2.65-0.95-2.1-2.85
			c0.54-1.9,1.9-2.51,2.51-4.07c0.61-1.56,1.43-3.33,1.43-3.33s1.81-0.61,2.91-3.6s3.81-6.65,5.17-6.65c1.36,0,3.53,2.99,6.65,2.58
			s3.08-5.25,5.02-3.94c1.94,1.31,1.02,2.85,4.17,2.44c3.16-0.41,4.74-3.75,5.74-2.67c1,1.08,1.5,3.37,2.85,2.69
			s1.84-0.99,2.31-0.42c0.48,0.57-0.81,1.44,0,2.12s0.13,0.81,1.08,1.76c0.95,0.95-0.08-1.03,2.05-0.46c2.13,0.57,6.25,2.6,6.87,3.5
			c0.62,0.9,2.78,1.25,2.1,3.36c-0.68,2.1,0.36,8.08,2.53,8.59c8.09,1.9,1.27,5.43,0,6.24c-1.27,0.81,0.12,7.51-0.07,8.73
			c-0.19,1.22,0.66,3.56-0.87,3.03s-1.9,2-1.9,2s-0.27,2.07-0.27,2.46s0.42-0.36-1.76,0.19c-2.17,0.54-4.21-0.54-3.94,1.49
			c0.27,2.04,2.72,2.44,1.63,3.8c-1.09,1.36-3.88,1.45-4.9,0.91c2.53,1.35-1.13,2.65-5.43-0.47c-1.2-0.87-0.37-0.87-1.2-0.87
			s-2.53-3.13-2.53-3.13l0.15-7.11l-10.16-13.37h-7.94l-5.72,3.3c0,0-1.57,2.64-1.65,3.63
			C1141.98,295.61,1142.03,294.66,1142.03,294.66z"/>
		<path class="st67" d="M1166.67,287c-7.03-11.51-15.31-14.71-22.75-2.66l-1.46,5.09c5.38-7.9,13.04-4.8,19.2,4.96
			c0.63,0.99,1.79,1.46,2.94,1.24c1.21-0.23,2.65-0.09,3.11,1.71c0.25,0.98-0.15,2.23-0.61,3.3c-0.54,1.25-0.51,2.67,0.14,3.87
			l0.29,0.54C1167.52,305.05,1171.75,295.33,1166.67,287z"/>
		<path class="st59" d="M1136.78,432.05c-2.94,2.67-5.31,4.36-10.4,5.52c-5.09,1.15-7.33,5.35-5.23,8.96
			c2.1,3.6,13.64,1.16,16.09-0.47c2.44-1.63,7.38-6.99,7.38-6.99l2.4-8.82l-8.51,0.17L1136.78,432.05z"/>
		<path class="st58" d="M1194.45,346.72c3.85,8.58,2.38,13.38,2.38,20.15c0,6.77-7.04,36.6-11.87,43.13
			c-4.84,6.53-40.34,29.06-40.34,29.06s2.08-3.21-2.3-6.77c-3.48-2.84-5.54-0.24-5.54-0.24l36.61-35.1c0,0,6.92-41.83,9.45-50.23
			C1185.39,338.32,1193.43,344.43,1194.45,346.72z"/>
		<linearGradient id="SVGID_36_" gradientUnits="userSpaceOnUse" x1="1084.0564" y1="376.7692" x2="1063.5463" y2="392.3285">
			<stop  offset="0" style="stop-color:#FFFFFF"/>
			<stop  offset="0.0762" style="stop-color:#FDF9F9"/>
			<stop  offset="1" style="stop-color:#EBB0B0"/>
		</linearGradient>
		<path class="st68" d="M1061.76,378.59c-10.39,6.99-12,16.06-4.81,24.96c7.19,8.9,9.8,0.89,9.7-4.2c-0.1-5.09-6.65-11.6-6.65-11.6
			L1061.76,378.59z"/>
		<path class="st59" d="M1137.22,431.9c-2.29,0.71-5.41-1.02-7.48,0c-2.07,1.02,1.18,3.12,3.95,3.26
			C1136.46,435.3,1137.22,431.9,1137.22,431.9z"/>
		<path class="st59" d="M1061.05,381.38c2.24,4.38,1.63,6.41,0,5.4c-1.63-1.02-2.34-3.36-2.14-3.36
			C1059.11,383.42,1061.05,381.38,1061.05,381.38z"/>
	</g>
	<g>
		<polygon class="st40" points="1206.47,786.56 1212.65,790.58 1212.65,782.92 1209.36,779.41 1196.17,770.92 1202.69,781.17 		"/>
		<linearGradient id="SVGID_37_" gradientUnits="userSpaceOnUse" x1="1002.4125" y1="797.0237" x2="1184.8662" y2="748.9666">
			<stop  offset="0" style="stop-color:#FF3456"/>
			<stop  offset="1" style="stop-color:#FFDF73"/>
		</linearGradient>
		<path class="st69" d="M1066.84,738.98c43.47-13.24,68.58-21.59,79.78-21.79s62.74,62.22,62.74,62.22s-4.52,3.52-2.89,7.16
			c0,0-37.59-31.05-63.2-42.08c0,0-32.25,18.25-41.41,18.25C1092.7,762.73,1040.99,746.85,1066.84,738.98z"/>
		<path class="st67" d="M917.37,742.98c6.79-16.06-5.49-24.33-4.47-33.29c1.02-8.96,4.47-16.09,4.47-16.09l11.95,15.92
			c0,0,0.36,2.33-0.26,8.55c-0.41,4.08-1.42,13.91-3.46,23.41C923.56,750.98,914.5,749.76,917.37,742.98z"/>
		<polygon class="st40" points="1172,826.64 1175.07,830.39 1179.58,828.66 1181.62,826.88 1179.4,821.55 1172.54,821.77 		"/>
		<path class="st59" d="M1005.22,691.35l10.24-5.05l-34.14,2.51l-1.12-8.65c0,0,43.42-11.77,54.06-9.42c4.91,1.08,2.92,7.99,0,14.41
			c-2.09,4.59-11.88,18.46-11.88,18.46L1005.22,691.35z"/>
		<linearGradient id="SVGID_38_" gradientUnits="userSpaceOnUse" x1="943.8514" y1="849.6926" x2="1167.4276" y2="765.3934">
			<stop  offset="0" style="stop-color:#FF3456"/>
			<stop  offset="1" style="stop-color:#FFDF73"/>
		</linearGradient>
		<path class="st70" d="M1043.08,770.92c24.34,14.9,64.35-5.74,76.01-12.47l52.9,68.2c0,0,2.09-4.45,7.4-5.08
			c0,0-39.86-70.02-46.17-80c-6.31-9.98-10.44-10.46-22.54-8.4c-12.09,2.06-36.31,5.82-36.31,5.82s-16.36,0.53-25.97,15
			C1038.79,768.44,1043.08,770.92,1043.08,770.92z"/>
		<path class="st59" d="M956.61,715.5c-10.42,4.3-10.42,4.3-10.42,4.3s3.49-6.35,13.26-14.64c9.77-8.28,12.08-10.92,12.08-10.92
			l-6.92-5.43c0,0-27.43,20.53-34.49,30.34c-7.06,9.81-8.75,16.88,4.22,16.09c12.97-0.78,27.36,0.1,27.36,0.1l15.95-8.38l-7.6-13.08
			h-10.13L956.61,715.5z"/>
		<g>
			<path class="st40" d="M1077.51,730.2c-1.95-1.99-15.62-0.05-30.96-10.19c-10.9-7.21-17.31-12.68-23.7-16.16
				c-0.16-0.09-0.32-0.16-0.48-0.25c-0.38-2.75-1.68-6.23-5.36-9.27c-7.47-6.15-12.28-2.72-12.28-2.72s-2.52,1.01-15.82,6.36
				c-0.32,0.07-0.64,0.13-0.95,0.2c-6.05,1.43-10.75,4.02-13.56,6.53l0-0.01c-12.06,8.34-16.94,10.46-17.8,10.8
				c0.7-0.24,3.96-0.91,7.32,5.21c3.8,6.92,0.67,11.42-2.24,14.63c0,0,13.6,0,20.57,6.4c19.24,17.67,46.38,30.93,54.43,33.82
				c0,0,5.97,2.72,12.63-12.83c4.48-10.46,13.13-22.4,30.67-27.78C1080,734.95,1079.47,732.19,1077.51,730.2z"/>
			<path class="st40" d="M956.61,715.5c-0.09,0.03-0.14,0.05-0.14,0.05S956.52,715.54,956.61,715.5z"/>
		</g>
		<path class="st59" d="M971.88,706.44c6.48-2.55,13.2-0.72,19.11-3.06c5.91-2.34,2.19-7.1,2.19-7.1s-7.53,2.52-8.35-1.4
			c-0.81-3.92-11.25,3.46-11.25,3.46s0.66,3.67,0.1,5.35C973.12,705.36,971.88,706.44,971.88,706.44z"/>
		<path class="st59" d="M973.58,698.33c8.61-2.31,13.24-4.12,12.83-6.47c-0.41-2.34-3.58-19.34-11.11-22.2
			c-7.53-2.85-13.44,13.66-10.55,20.09C967.65,696.2,973.58,698.33,973.58,698.33z"/>
		<path class="st67" d="M973.81,700.08c0.25,14.69-11.84-7.24-17.34-6.04l-12.88,8.61c0,0-10.52,2.46-14.28,6.88l-11.95-15.92
			c1.94-8.04,9.35,3.62,14.46-13.13c4.79-15.68,14.36-3.77,19.14-11.12c6.18-9.51,9.47,3.71,15.26,0.37
			c5.78-3.34,14.95-5.82,17.99,5.72c0.4,1.53,0,7.56,0,7.56s-4.02-10.13-7.58-9.97c-3.56,0.17-7.84,10.08-6.98,14.71
			c0,0-3.31-0.31-2.19,2.49c1.12,2.8,3.73,2.1,3.73,2.1S973.76,697.39,973.81,700.08z"/>
		<path class="st67" d="M1214.01,779.85c1.48-0.54,1.81,2.06,1.81,2.06s2.8-1.65,11.54-6.09c4.99-2.53,1.78,6.92-7.7,12.61
			c-4.2,2.52-4.48,5.95-6.59,5.32c-2.1-0.63-4.43-4.82-4.43-4.82s3.81-2.65,2.73-4.74C1210.52,782.53,1212.69,780.33,1214.01,779.85
			z"/>
		<path class="st67" d="M1173.98,829.92c1.45,3.12,3.5,4.9,5,5.37c1.49,0.48,9.98-2.21,14.93-4.33c4.95-2.12,5.29-4.43,0-4.33
			c-5.29,0.1-11.61,0.1-11.61,0.1s-0.87-0.65-0.69-1.77c0.18-1.12-5.12,0.08-4.02,2.39l0.66,1.12c0,0-1.65,1.37-2.57,1.27
			C1174.76,829.65,1173.8,829.53,1173.98,829.92z"/>
	</g>
	<g>
		<linearGradient id="SVGID_39_" gradientUnits="userSpaceOnUse" x1="752.4489" y1="648.2949" x2="738.5062" y2="654.2703">
			<stop  offset="0" style="stop-color:#04007E"/>
			<stop  offset="1" style="stop-color:#BB1AFF"/>
		</linearGradient>
		<path class="st71" d="M927.16,560.99c-2.59,2.45-2.19,7.99-0.46,9.93c1.73,1.93,5.45,1.62,7.54,2.98
			c5.66,3.69,13.6,3.69,16.15,1.91c2.45-1.72,3.36-3.67-4.89-8.76c-5.35-3.3-8.82-5.43-8.82-5.43L927.16,560.99z"/>
		<path class="st40" d="M927.31,556.46c-0.33,3.46-0.65,5.42-0.87,6.48c-0.17,0.8,0.11,1.62,0.73,2.16
			c1.72,1.49,5.41,3.91,9.61,1.84c0,0,2.44-0.97,1.32-4.17s-1.73-7.28-1.73-7.28L927.31,556.46z"/>
		<linearGradient id="SVGID_40_" gradientUnits="userSpaceOnUse" x1="723.6483" y1="662.0068" x2="710.803" y2="667.512">
			<stop  offset="0" style="stop-color:#04007E"/>
			<stop  offset="1" style="stop-color:#BB1AFF"/>
		</linearGradient>
		<path class="st72" d="M883.85,578.91c-2.59,2.45-2.19,7.99-0.46,9.93c1.73,1.93,4.44,0.33,5.69,2.49
			c4.76,8.2,13.33,7.24,16.3,6.93c4.47-0.46,4.7-4.17-2.67-11.12c-7.16-6.75-8.54-8.5-8.54-8.5L883.85,578.91z"/>
		<linearGradient id="SVGID_41_" gradientUnits="userSpaceOnUse" x1="964.9832" y1="550.6114" x2="795.6185" y2="330.4372">
			<stop  offset="0" style="stop-color:#EFEFF3"/>
			<stop  offset="1" style="stop-color:#C7C5DA"/>
		</linearGradient>
		<path class="st73" d="M854.38,378.46c-8.55,20.86-10.59,31.35,6.92,51.56c17.51,20.21,42.68,40.03,45.98,46
			c3.3,5.98,7.17,19,18.06,80.33c0.67,3.77,12.22,4.66,12.19-2.34c-0.06-12.03-2.09-80.92-5.46-98.01
			c-3.37-17.09-38.51-50.72-38.51-50.72L854.38,378.46z"/>
		<path class="st40" d="M884.01,574.38c-0.33,3.46-0.65,5.42-0.87,6.48c-0.17,0.8,0.11,1.62,0.73,2.16
			c1.72,1.49,5.41,3.91,9.61,1.84c0,0,2.44-0.97,1.32-4.17s-1.73-7.28-1.73-7.28L884.01,574.38z"/>
		<path class="st59" d="M898.54,365.86c10.58,8.11,14.93,11.25,14.93,11.25l10.32-5.62l-14.76-21.22l-4.93-4l-6.69,9.5
			L898.54,365.86z"/>
		<linearGradient id="SVGID_42_" gradientUnits="userSpaceOnUse" x1="953.2768" y1="532.0667" x2="363.9939" y2="242.8479">
			<stop  offset="0" style="stop-color:#EFEFF3"/>
			<stop  offset="1" style="stop-color:#C7C5DA"/>
		</linearGradient>
		<path class="st74" d="M829.06,392.97c-8.55,20.86-10.59,31.35,6.92,51.56c17.51,20.21,46.52,34.79,49.82,40.77
			c3.3,5.98-2.17,59.78-3.85,88.19c-0.22,3.82,12.32,6.94,13.25,0c1.14-8.59,14.92-85.88,11.55-102.97
			c-3.37-17.09-38.51-50.72-38.51-50.72L829.06,392.97z"/>
		<path class="st40" d="M894.76,331.3l-0.31,36.89c0,0,1.39-3.86,4.09-2.32c0,0-1.17-14.31,10.49-15.59
			C909.03,350.27,898.38,333.39,894.76,331.3z"/>
		<path class="st40" d="M822.66,407.12c3.17,18.2,25.69,28.43,54.34,12.47c28.65-15.96,15.11-22.03,14.64-37.29
			c-0.47-15.25-3.59-20.65,2.93-43.12c6.52-22.47-32.83-10.33-49.41,3.53C828.57,356.57,819.73,390.31,822.66,407.12z"/>
		<linearGradient id="SVGID_43_" gradientUnits="userSpaceOnUse" x1="758.883" y1="276.2025" x2="1275.3331" y2="794.7191">
			<stop  offset="0" style="stop-color:#04007E"/>
			<stop  offset="1" style="stop-color:#BB1AFF"/>
		</linearGradient>
		<path class="st75" d="M845.15,342.71c-16.58,13.86-27.22,53.58-24.29,70.38c2.52,14.44,20.44,30.89,40.72,26.2
			c-0.46-2.78-2.27-19.83-2.4-25.7c-0.55-24.78,12.58-38.97,9.12-69.11c0,0-14.66-6.62-1.73-12.63c12.93-6.01,18.74-5.99,20.37-1.11
			c1.63,4.89-5.2,41.2-4.25,67.7c0.35,9.68,4.18,23.17,4.55,27.89c17.5-12.36,7.21-30.52,6.79-44.04
			c-0.47-15.25,1.97-19.88,2.36-43.27C896.79,314.92,861.73,328.85,845.15,342.71z"/>
		<path class="st59" d="M875.08,316.85c-5.83,12.12-9.78,15.1-11.01,17.39s4.66,4.99,9.34,5.35l2.97,8.09l5.35-12.23
			c0,0,2.92-1.22,2.24-3.8c-0.68-2.58,0.92-4.89,1.78-6.57C886.63,323.4,875.08,316.85,875.08,316.85z"/>
		<path class="st59" d="M874.85,314.64c0.27,8.65,7.3,12.32,13.1,13.64c5.8,1.32,18.84-16.9,16.94-25.05
			c-1.9-8.15-14.66-16.02-21.72-10.05S874.85,314.64,874.85,314.64z"/>
		<g>
			<path class="st40" d="M895.29,383.05c-0.08,0-0.17-0.01-0.25-0.03l-9.48-2.44c-0.54-0.14-0.86-0.68-0.72-1.22
				c0.14-0.54,0.69-0.86,1.22-0.72l9.48,2.44c0.54,0.14,0.86,0.68,0.72,1.22C896.14,382.75,895.74,383.05,895.29,383.05z"/>
		</g>
		<path class="st40" d="M850.79,344.68c-10.26,2.75-17.31,18.03-20.36,32.43c-3.05,14.4,11.33,10.88,16.29,5.62
			C851.67,377.48,864.71,340.95,850.79,344.68z"/>
		<path class="st59" d="M896.02,379.91c-3.66-0.82-4.08,1.16-7.27,5.55c-0.01,0-0.02,0.01-0.03,0.01
			c-7.22,2.8-24.11,9.37-31.7,12.32c0,0-5.05-40.39-7.23-46.5l-15.1,25.81c5.32,22.86,11.11,32.22,15.67,36.7
			c3.66,3.59,32.4-13.95,43.63-21.04h0c0,0,3.6,0.73,9.64-4.11C909.69,383.83,900.09,380.83,896.02,379.91z"/>
		<linearGradient id="SVGID_44_" gradientUnits="userSpaceOnUse" x1="828.673" y1="330.2469" x2="814.0145" y2="336.3546">
			<stop  offset="0" style="stop-color:#04007E"/>
			<stop  offset="1" style="stop-color:#BB1AFF"/>
		</linearGradient>
		<path class="st76" d="M873.42,314.9c1.09,5.85-4.92,2.55-6.29,5.91c-1.37,3.36,7.6,4.3,11.1,0c1.97-2.41,3.65-1.5,1.48-4.87
			c-2.24-3.5,2.69-5.08,4.71-2.69c2.02,2.38,4.47-0.18,5.42-2.02c0.95-1.84,7.54,2.42,12.38,3.24c4.84,0.82,11.39-0.84,10.37-6.74
			c-1.02-5.91-3.64-2.69-4.67-4.93c-1.04-2.24,4.06-2.2,1.11-5.36c-2.95-3.16-6.33,0.58-7.29-2c-0.96-2.58-5.29-2.99-7.02-5.54
			c-1.73-2.55-5.33,0.97-6.47,0c-1.14-0.97-6.57-0.92-9.47,6.57c-2.9,7.48-2.7,4.35-4.66,7.95
			C872.17,308.02,873.42,314.9,873.42,314.9z"/>
		<polygon class="st67" points="897.49,385.62 926.17,361.98 909.66,392.05 881.12,417.19 		"/>
		<path class="st59" d="M922.2,369.21c7.49,10.05,4.1,14.62,1.97,17.59c-2.05,2.86-23.33,15.9-26.33,21.26
			c-2.99,5.36-10.29,3.96-12.8,2.6c-2.51-1.36-4.1-6.06-2.39-9.8c2-4.38,8.83-0.13,8.83-0.13l24.96-21.02L922.2,369.21z"/>
		<path class="st40" d="M853.67,372.96c-4.62-3.75-16.78,2.26-17.76,9.09l-3.01-3.59l8.11-23.05l7.88-7.07l3.97,2.95L853.67,372.96z
			"/>
	</g>
	<g>
		<linearGradient id="SVGID_45_" gradientUnits="userSpaceOnUse" x1="1378.5907" y1="981.2258" x2="1381.0343" y2="977.764">
			<stop  offset="0" style="stop-color:#04007E"/>
			<stop  offset="1" style="stop-color:#BB1AFF"/>
		</linearGradient>
		<path class="st77" d="M1346.2,1013.78c-6.5,5.45-7.84,4.9-8.68,8.68c-0.84,3.78,9.56,1.52,14.47-0.31c0,0,4.02-1.52,6.06-4.2
			c2.05-2.67,4.09-1.34,7.94-2.67c3.85-1.34,4.33-5.06,2.65-10.93c-1.68-5.87-12.88-0.1-15.3,1.78
			C1350.92,1008.01,1346.2,1013.78,1346.2,1013.78z"/>
		<path class="st59" d="M1348.96,709.62c-3.22-6.96-6.48-2.38-8.21-10.93c-1.73-8.55,1.7-19.8,14.05-27.96
			c12.35-8.15,20.23,1.62,21.59,16.01c1.36,14.39-7.03,24.98-7.03,24.98l-11.61,3.97L1348.96,709.62z"/>
		<linearGradient id="SVGID_46_" gradientUnits="userSpaceOnUse" x1="1166.8951" y1="924.1171" x2="1127.2548" y2="920.316">
			<stop  offset="0" style="stop-color:#04007E"/>
			<stop  offset="1" style="stop-color:#BB1AFF"/>
		</linearGradient>
		<path class="st78" d="M1278.06,932.87c-1.86,6.31-2.88,8.21-4.17,9.84c-1.29,1.63-9.84-0.61-10.59-2.1
			c-0.75-1.49-2.58,0.14-3.39,0.75c-0.81,0.61-17.8,2-17.82,0.07c-0.08-7.54,5.18-4.74,15.88-8.55c18.59-6.63,12.32-9.57,12.32-9.57
			L1278.06,932.87z"/>
		<linearGradient id="SVGID_47_" gradientUnits="userSpaceOnUse" x1="1342.1437" y1="996.8979" x2="1228.6484" y2="648.0059">
			<stop  offset="0" style="stop-color:#04007E"/>
			<stop  offset="1" style="stop-color:#BB1AFF"/>
		</linearGradient>
		<path class="st79" d="M1266.06,926.23c12.02-76.47,7.54-84.15,18.41-90.89c10.87-6.74,49.98-26.78,49.98-26.78l11.52,36.47
			c0,0-44.09,20.71-45.63,24.98c-4.88,13.58-5.35,18.16-10.1,31.49c-5.89,16.56-9.26,25.12-10.94,29.87
			C1277.62,936.13,1265.11,932.28,1266.06,926.23z"/>
		<path class="st59" d="M1242.78,747.29c-5.81,0.43-8.42,3.26-11.12,3.5s-3.09,0.12-3.09,0.12s6.16-3.75,6.37-6.8
			s-2.05-3.26-3.15-2.6c-1.09,0.66-7.44,4.32-7.44,4.32s-4.48-7.68,0-12.68c4.48-5,11.94-4.71,22.76,1.53
			C1257.93,740.93,1242.78,747.29,1242.78,747.29z"/>
		<linearGradient id="SVGID_48_" gradientUnits="userSpaceOnUse" x1="1439.1821" y1="1148.9009" x2="1216.5125" y2="464.3989">
			<stop  offset="0" style="stop-color:#04007E"/>
			<stop  offset="1" style="stop-color:#BB1AFF"/>
		</linearGradient>
		<path class="st80" d="M1333.22,849.49c4.6,32.53,9.58,48.05,12.02,72.9c2.44,24.84,5.63,63.81,8.6,78.18
			c1.98,9.59,15.08,8.59,14.25,0c-0.79-8.15,1.68-64.69,3.54-79.64c1.85-14.95,4.76-79.28,4.76-79.28l-41.93-33.08L1333.22,849.49z"
			/>
		<linearGradient id="SVGID_49_" gradientUnits="userSpaceOnUse" x1="1315.902" y1="715.1294" x2="1387.4316" y2="1065.379">
			<stop  offset="0" style="stop-color:#1A5DFF"/>
			<stop  offset="1" style="stop-color:#BB1AFF"/>
		</linearGradient>
		<path class="st81" d="M1412.82,798.45c0,0-12.33-52.25-27.22-63.31c0,0-9.72-8.78-9.72-8.78c-6.01-9.49-6.52-14.64-6.52-14.64
			c-10.07,2.57-20.4-2.1-20.4-2.1s1.97,5.91-0.15,8.41c0,0,0,0,0.01,0c-14.64,2.88-37.54,18.79-47.6,20.95
			c-11.58,2.48-31.71-0.38-54.11-4.29c-3.12-0.54-6.67,11.62-3.84,13.03c24.1,12,33.99,18.67,54.42,15.01s25.71-2.17,30.39,4.65
			c4.68,6.83-3.6,32.55-12.39,47.89c-7.66,13.38,15.11,15.01,24.05,18.24s12.76,33.52,32.24,36.5c8.76,1.34,18.97-30.7,23.59-54.74
			l10.18,15.12L1412.82,798.45z"/>
		<g>

				<linearGradient id="SVGID_50_" gradientUnits="userSpaceOnUse" x1="1169.7963" y1="807.2424" x2="1520.1046" y2="240.7152" gradientTransform="matrix(1 0.5774 0 1 0 -478.2018)">
				<stop  offset="0" style="stop-color:#FF3456"/>
				<stop  offset="1" style="stop-color:#FFDF73"/>
			</linearGradient>
			<path class="st82" d="M1313.83,798.19l43.6,97.21l16.14-9.33c22.59-21.95,37.13-55.83,40.5-99.73l-75.22-51.19
				C1336.77,762.73,1327.8,784.13,1313.83,798.19z"/>

				<linearGradient id="SVGID_51_" gradientUnits="userSpaceOnUse" x1="1293.0543" y1="600.458" x2="1700.5935" y2="-58.6242" gradientTransform="matrix(1 0.5774 0 1 0 -478.2018)">
				<stop  offset="0" style="stop-color:#FF3456"/>
				<stop  offset="1" style="stop-color:#FFDF73"/>
			</linearGradient>
			<path class="st83" d="M1297.69,807.52l59.73,87.88c22.59-21.95,37.13-55.83,40.5-99.73l-75.22-51.19
				C1320.63,772.06,1311.67,793.46,1297.69,807.52z"/>

				<linearGradient id="SVGID_52_" gradientUnits="userSpaceOnUse" x1="-1495.1134" y1="1134.6293" x2="-1339.9545" y2="682.5903" gradientTransform="matrix(-1 0 0 1 0 0)">
				<stop  offset="0" style="stop-color:#FF3456"/>
				<stop  offset="1" style="stop-color:#FFDF73"/>
			</linearGradient>
			<polygon class="st84" points="1338.84,735.15 1322.7,744.48 1397.93,795.67 1414.06,786.34 			"/>
		</g>
		<path class="st59" d="M1379.59,833.93c-8.36,3.1-16.23-2.83-17.46-0.41c-1.22,2.42,6.85,4.43,6.25,5.41
			c-0.6,0.98-5.3,1.09-11.41,1.63c-6.11,0.54-3.03,10.45,6.97,11.27s13.39-3.8,19.64-4.75
			C1389.83,846.12,1379.59,833.93,1379.59,833.93z"/>
		<linearGradient id="SVGID_53_" gradientUnits="userSpaceOnUse" x1="1394.6409" y1="801.8214" x2="1414.4714" y2="898.9227">
			<stop  offset="0" style="stop-color:#1A5DFF"/>
			<stop  offset="1" style="stop-color:#BB1AFF"/>
		</linearGradient>
		<path class="st85" d="M1412.82,798.45c13.45,33.33,12.03,43.83-11.18,48.1c-14.18,2.61-19.04,3.13-19.04,3.13
			c-0.51-8.58-3.01-15.76-3.01-15.76l27.99-11.77L1412.82,798.45z"/>
		<path class="st86" d="M1342.34,684.92c4.77,1.28,5.13,5.12,6.86,9.71c1.73,4.58,5.94,2.85,9.23-1.12c3.29-3.97,1.87-6.07,4-8.59
			c2.14-2.51,4.28-3.33,2.65-5.87c-1.63-2.55-5.12-0.31-7.53-2.55c-2.42-2.23-6.07-3.39-7.08-2.47l-3.47,3.5
			c0,0-1.76-3.98,4.14-8.87c5.91-4.89,15.41-5.41,21.65-0.67c0,0,6.96,5.05,11.44,16.55c4.48,11.51-9.38,21.83-12.51,23.48
			c-2.44,1.29-5.54-2.91-6.63-7.6c-1.1-4.68-0.45-4.15,2.24-5.7c2.69-1.55,3.94-6.46,1.06-7.56c-2.89-1.1-4.01-0.69-5.64,1.86
			c-1.63,2.55-4.28,14.36-6.52,16.29c-2.24,1.93-7.16-3.48-10.96-3.65c-1.46-0.07-2.09-0.13-2.43-0.09c-0.58,0.06-0.9,0.7-0.6,1.2
			l0.44,0.73C1334.85,702.41,1336.87,683.45,1342.34,684.92z"/>
	</g>
	<g>
		<polygon class="st87" points="845.06,754.72 649.22,641.65 649.22,489.13 845.06,602.2 		"/>
		<g>
			<g>
				<linearGradient id="SVGID_54_" gradientUnits="userSpaceOnUse" x1="745.5662" y1="634.8773" x2="825.9327" y2="729.9051">
					<stop  offset="0" style="stop-color:#1A5DFF"/>
					<stop  offset="1" style="stop-color:#BB1AFF"/>
				</linearGradient>
				<path class="st88" d="M772.22,667.08c-14.77-8.2-26.97-28.81-27.26-46.03c-0.06-3.61,0.41-6.78,1.33-9.47l-14.51-13.61
					c-1.39,4.17-2.1,9.07-2.01,14.64c0.44,27,19.58,59.32,42.74,72.18c13.49,7.49,25.36,6.73,32.85-0.54l-12.02-17.68
					C788.58,671.36,780.93,671.91,772.22,667.08z"/>
				<linearGradient id="SVGID_55_" gradientUnits="userSpaceOnUse" x1="798.2438" y1="594.1024" x2="475.6915" y2="645.6889">
					<stop  offset="0" style="stop-color:#1A94FF"/>
					<stop  offset="1" style="stop-color:#BB1AFF"/>
				</linearGradient>
				<path class="st89" d="M731.78,597.96l14.51,13.61c3.45-10.13,13.23-13.34,24.91-6.86c4.84,2.69,9.4,6.71,13.36,11.5l6.74-11.85
					c-6.08-7.22-13.03-13.28-20.39-17.37C752.53,576.79,737.13,581.91,731.78,597.96z"/>

					<linearGradient id="SVGID_56_" gradientUnits="userSpaceOnUse" x1="783.6758" y1="-74.013" x2="842.7534" y2="-169.5547" gradientTransform="matrix(1 0.5774 0 1 0 309.5068)">
					<stop  offset="0" style="stop-color:#FF3456"/>
					<stop  offset="1" style="stop-color:#FFDF73"/>
				</linearGradient>
				<path class="st90" d="M793.34,666.57l12.02,17.68c4.55-4.42,7.47-11.23,8.15-20.07l-15.14-10.3
					C797.96,659.43,796.15,663.74,793.34,666.57z"/>
			</g>

				<linearGradient id="SVGID_57_" gradientUnits="userSpaceOnUse" x1="813.6801" y1="-93.0282" x2="784.17" y2="-176.1671" gradientTransform="matrix(1 0.5774 0 1 0 309.5068)">
				<stop  offset="0" style="stop-color:#BB1AFF"/>
				<stop  offset="1" style="stop-color:#EC89F6"/>
			</linearGradient>
			<path class="st91" d="M791.3,604.37l-6.74,11.85c2.78,3.37,5.26,7.13,7.33,11.08l11.39-5.06
				C799.91,615.84,795.85,609.78,791.3,604.37z"/>
			<linearGradient id="SVGID_58_" gradientUnits="userSpaceOnUse" x1="790.5313" y1="555.8057" x2="791.6174" y2="563.408">
				<stop  offset="0" style="stop-color:#1A5DFF"/>
				<stop  offset="1" style="stop-color:#BB1AFF"/>
			</linearGradient>
			<path class="st92" d="M798.37,653.88l15.14,10.3c0.12-1.6,0.17-3.26,0.14-4.99c-0.2-12-4.08-25.04-10.37-36.96l-11.39,5.06
				c3.98,7.57,6.44,15.84,6.57,23.46C798.48,651.83,798.45,652.88,798.37,653.88z"/>
		</g>
		<linearGradient id="SVGID_59_" gradientUnits="userSpaceOnUse" x1="718.4407" y1="553.9352" x2="640.5265" y2="564.9642">
			<stop  offset="0" style="stop-color:#BB1AFF"/>
			<stop  offset="1" style="stop-color:#EC89F6"/>
		</linearGradient>
		<polygon class="st93" points="703.26,568.08 690.45,560.69 690.45,545.9 703.26,553.29 		"/>
		<polygon class="st57" points="703.26,588.26 690.45,580.87 690.45,566.08 703.26,573.47 		"/>
		<polygon class="st94" points="703.26,608.51 690.45,601.11 690.45,586.32 703.26,593.72 		"/>
		<polygon class="st95" points="703.26,628.75 690.45,621.35 690.45,606.56 703.26,613.96 		"/>
		<polygon class="st86" points="703.26,648.99 690.45,641.6 690.45,626.81 703.26,634.2 		"/>
	</g>
	<g>
		<linearGradient id="SVGID_60_" gradientUnits="userSpaceOnUse" x1="708.7855" y1="991.4256" x2="709.2348" y2="995.0197">
			<stop  offset="0" style="stop-color:#04007E"/>
			<stop  offset="1" style="stop-color:#BB1AFF"/>
		</linearGradient>
		<path class="st96" d="M687.3,942.99c0.1,3.77-0.74,5.65,0.48,7.49s5.75,3.05,8.31,1.84c2.87-1.37,4.63-2.41,5.4-3.99
			c0.77-1.58,2-1.46,4.24-2.04c2.24-0.58,13.31-7.23,12.49-9.54c-0.81-2.31-5.14-3.05-12.03-0.44c-6.93,2.62-16.95,5.36-16.95,5.36
			L687.3,942.99z"/>
		<linearGradient id="SVGID_61_" gradientUnits="userSpaceOnUse" x1="652.5945" y1="980.6175" x2="653.009" y2="983.9341">
			<stop  offset="0" style="stop-color:#04007E"/>
			<stop  offset="1" style="stop-color:#BB1AFF"/>
		</linearGradient>
		<path class="st97" d="M633.17,934.95c0.14,6.45-0.07,7.47,1.97,9.5c2.04,2.04,8.66-0.9,9.15-2.53c0.48-1.63,1.43-0.14,3.74-1.63
			c2.32-1.49,11.88-6.47,12.49-9.32c0.61-2.85-4.68-3.3-9.42-1.73c-4.25,1.42-10.13,1.49-10.13,1.49L633.17,934.95z"/>
		<linearGradient id="SVGID_62_" gradientUnits="userSpaceOnUse" x1="626.893" y1="669.8685" x2="667.6195" y2="1243.2949">
			<stop  offset="0" style="stop-color:#04007E"/>
			<stop  offset="1" style="stop-color:#BB1AFF"/>
		</linearGradient>
		<path class="st98" d="M611.56,748.49c5.7,52.54,11.4,76.97,11.81,95.3c0.41,18.33,5.7,73.71,7.74,87.15
			c2.04,13.44,15.26,6.11,15.16,0c-0.1-6.11,6.42-77.38,6.83-93.67c0.41-16.29,0-92.86,0-92.86L611.56,748.49z"/>
		<linearGradient id="SVGID_63_" gradientUnits="userSpaceOnUse" x1="661.1064" y1="747.1499" x2="692.1348" y2="1144.3096">
			<stop  offset="0" style="stop-color:#04007E"/>
			<stop  offset="1" style="stop-color:#BB1AFF"/>
		</linearGradient>
		<path class="st99" d="M632.42,785.65c28.92,57.77,33.97,54.51,41.83,79.76s9.49,63.2,10.71,73.96c1.22,10.75,14.25,8.79,15.07,0
			s2.85-80.23,0-97.05c-2.85-16.82-36.72-97.9-36.72-97.9l-26.09,15.06L632.42,785.65z"/>
		<path class="st59" d="M712.32,648.8c4.17-2.8,2.36-5.48,9.67-9.83c4.4-2.61,8.93,1.99,12.12,1.14c3.19-0.86,6.2-5.72,8.34-3.83
			c1.16,1.02-0.12,2.2-7.32,7.7c0,0-2.74,4.38-5.45,6.82c-2.72,2.44-5.13-0.64-6.63-0.44c-1.49,0.2-7.53,5.29-7.53,5.29
			L712.32,648.8z"/>
		<path class="st59" d="M637.28,644.71c2.6-4.19,3.67-10.47,2.34-13.72s-5.29-20.27,7.87-25.12c13.17-4.85,23.49,6.39,21.25,19.42
			c-2.24,13.03-3.56,20.26-7.03,20.71c-3.46,0.46-4.7-0.29-5.45,2.48c-0.76,2.77-15.52,0-15.52,0l-3.46-1.14V644.71z"/>
		<linearGradient id="SVGID_64_" gradientUnits="userSpaceOnUse" x1="810.4149" y1="799.3953" x2="618.187" y2="617.7561">
			<stop  offset="0" style="stop-color:#FF3456"/>
			<stop  offset="1" style="stop-color:#FFDF73"/>
		</linearGradient>
		<path class="st100" d="M710.97,646.29c-42.25,26.47-43.35,33.36-59.02,24.89c-15.67-8.47-26.56-22.6-26.56-22.6l-10.49,27.38
			c0,0,9.36,14.42,33.39,20.96c24.03,6.54,48.45-23.79,66.86-36.46C724.52,654.02,714.28,644.21,710.97,646.29z"/>
		<linearGradient id="SVGID_65_" gradientUnits="userSpaceOnUse" x1="689.522" y1="865.1877" x2="595.8395" y2="601.0994">
			<stop  offset="0" style="stop-color:#FF3456"/>
			<stop  offset="1" style="stop-color:#FFDF73"/>
		</linearGradient>
		<path class="st101" d="M634.15,645.57c28.82,16.46,30.76,14.76,38.94,39.08c6.13,18.24-6.53,65.75,5.02,90.46
			c4.07,8.7-2.58,13.55-10.33,11.93c-9.96-2.08-12.64-23.55-12.64-23.55s7.08,52.1-9.82,49.4c-16.89-2.7-29.49-19.61-34.59-35.53
			c-2.63-8.19-4.52-74.8-3.69-79.52C612.32,667.91,624.79,640.22,634.15,645.57z"/>
		<path class="st59" d="M673.36,731.53c0,0-0.43,7.54-1.02,9.81c0,0-1.46,2.35-4.79,5.28c-3.33,2.93-8.26,1.89-7.92,5.14
			c0.34,3.25,3.97,0.24,11.29,1.39c6.22,1.35,7.5-0.48,7.5-0.48s0.2-6.52,0.29-10.12C678.94,733.63,673.36,731.53,673.36,731.53z"/>
		<linearGradient id="SVGID_66_" gradientUnits="userSpaceOnUse" x1="738.2805" y1="867.1985" x2="650.9396" y2="647.4001">
			<stop  offset="0" style="stop-color:#FF3456"/>
			<stop  offset="1" style="stop-color:#FFDF73"/>
		</linearGradient>
		<path class="st102" d="M663.25,709.08c6.03,16.83,21.04,29.87,21.04,29.87s-9.38-0.33-11.25,6.15c-1.48,5.14-0.91,7.49,6.31,8.73
			c11.05,1.9,23.11-2.1,25.94-8.14c6.11-13.03-32.97-69.92-38.33-76.32C659.86,660.87,657.56,693.21,663.25,709.08z"/>
		<linearGradient id="SVGID_67_" gradientUnits="userSpaceOnUse" x1="638.2787" y1="681.4339" x2="648.0675" y2="636.2854">
			<stop  offset="0" style="stop-color:#FF3456"/>
			<stop  offset="1" style="stop-color:#FFDF73"/>
		</linearGradient>
		<path class="st103" d="M637.28,644.71c0,0-3.98,3.33-5.24,5.69c-0.55,1.04,14.42,6.53,24.22,7.87v-9.79
			C656.27,648.48,636.75,647.75,637.28,644.71z"/>
		<linearGradient id="SVGID_68_" gradientUnits="userSpaceOnUse" x1="603.7291" y1="636.8445" x2="580.1078" y2="643.7679">
			<stop  offset="0" style="stop-color:#04007E"/>
			<stop  offset="1" style="stop-color:#BB1AFF"/>
		</linearGradient>
		<path class="st104" d="M663.65,598.98c13.64,0.95,11.82,15.36,8.38,21.3c-3.45,5.93-3.63,3.94-8.38,6.94c0,0-0.95-0.45-2.24,7.85
			c0,0-1.72,0.46-2.57,0.69c-0.85,0.23,0.8-2.43-0.42-3.52c-1.22-1.09-5.29,1.56-3.73,5.29c1.56,3.73,1.57,2.65,1.57,2.65
			s-3.27,3.73-5.17,3.05c-1.9-0.68-10.94-1.24-11.41-4.56c-0.47-3.32-4.27-7.88-3.59-16.8c0.68-8.92,6.58-17.26,15.27-18.76
			C660.06,601.63,660.42,598.76,663.65,598.98z"/>
	</g>
</g>
<linearGradient id="SVGID_69_" gradientUnits="userSpaceOnUse" x1="178.0112" y1="194.9431" x2="-13.222" y2="3.7099">
	<stop  offset="0" style="stop-color:#FF3456"/>
	<stop  offset="1" style="stop-color:#FFDF73"/>
</linearGradient>
<rect x="88.73" y="105.66" class="st105" width="49.72" height="49.72"/>
</svg>
